<?xml version="1.0" encoding="UTF-8" standalone="no"?>
<!-- Created with Inkscape (http://www.inkscape.org/) -->

<svg
   width="64"
   height="64"
   viewBox="0 0 16.933333 16.933333"
   version="1.1"
   id="svg7910"
   xmlns="http://www.w3.org/2000/svg"
   xmlns:svg="http://www.w3.org/2000/svg">
  <defs
     id="defs7907" />
  <g
     id="layer1">
    <g
       aria-label="ã™"
       id="text3451"
       style="font-size:34.1732px;font-family:Gotham;-inkscape-font-specification:Gotham;text-align:center;text-anchor:middle;fill:#61c4ca;stroke-width:29.3087;stroke-linecap:square;paint-order:markers stroke fill;stop-color:#000000"
       transform="matrix(0.48299007,0,0,0.48299007,-25.179512,-39.165284)">
      <path
         d="M 83.470036,92.153029 Q 77.41297,92.53681 73.024517,92.636927 l -0.116803,5.406307 0.43384,1.284832 q 0.433839,1.485064 0.433839,2.653094 0,3.38729 -2.102452,6.47422 -2.102453,3.08693 -6.007008,4.98915 l -2.486234,-2.41949 q 5.606541,-2.41948 7.175037,-6.42416 -1.902219,0.81762 -3.454029,0.81762 -2.169197,0 -3.75438,-1.435 -1.568496,-1.4517 -1.568496,-3.75438 0,-2.269317 1.601868,-4.021361 1.601869,-1.752044 4.154847,-1.752044 1.384949,0 2.50292,0.500584 0.03337,-0.450525 0.03337,-2.152511 -8.126146,0.383781 -13.565825,0.483898 l -0.450526,-3.003504 q 6.924745,0.05006 13.982979,-0.417153 0.08343,-1.451693 0.08343,-3.337226 0,-1.418322 -0.05006,-2.736526 h 3.120307 v 5.940263 q 4.838978,-0.150175 10.31203,-0.617387 z m -13.732687,7.59219 q 0,-1.067912 -0.73419,-1.718671 -0.717503,-0.667446 -1.785416,-0.667446 -1.134657,0 -1.885533,0.767563 -0.750876,0.767562 -0.750876,1.902215 0,1.10129 0.717504,1.81879 0.73419,0.71751 1.685299,0.71751 1.151343,0 1.952278,-0.81762 0.800934,-0.81763 0.800934,-2.002341 z"
         style="font-weight:bold"
         id="path7881" />
    </g>
  </g>
</svg>
